<svg width="92" height="77" viewBox="0 0 92 77" fill="none" xmlns="http://www.w3.org/2000/svg">
<path d="M9.5054 76.7289C7.0029 76.7289 4.8606 75.7987 3.07852 73.9383C1.29644 72.0779 0.405396 69.8414 0.405396 67.2289V10.2289C0.405396 7.61644 1.29644 5.37998 3.07852 3.51957C4.8606 1.65915 7.0029 0.728943 9.5054 0.728943H82.3054C84.8079 0.728943 86.9502 1.65915 88.7323 3.51957C90.5144 5.37998 91.4054 7.61644 91.4054 10.2289V67.2289C91.4054 69.8414 90.5144 72.0779 88.7323 73.9383C86.9502 75.7987 84.8079 76.7289 82.3054 76.7289H9.5054ZM9.5054 67.2289H41.3554V10.2289H9.5054V67.2289ZM50.4554 67.2289H82.3054V10.2289H50.4554V67.2289ZM14.0554 57.7289H36.8054V48.2289H14.0554V57.7289ZM14.0554 43.4789H36.8054V33.9789H14.0554V43.4789ZM14.0554 29.2289H36.8054V19.7289H14.0554V29.2289ZM55.0054 57.7289H77.7554V48.2289H55.0054V57.7289ZM55.0054 43.4789H77.7554V33.9789H55.0054V43.4789ZM55.0054 29.2289H77.7554V19.7289H55.0054V29.2289Z" fill="#B3261E"/>
</svg>
