<svg width="46" height="52" viewBox="0 0 46 52" fill="none" xmlns="http://www.w3.org/2000/svg">
<path d="M26.8333 21.45V17.7667C27.8875 17.2611 28.9656 16.882 30.0677 16.6292C31.1698 16.3764 32.3278 16.25 33.5417 16.25C34.3722 16.25 35.1868 16.3222 35.9854 16.4667C36.784 16.6111 37.5667 16.7917 38.3333 17.0084V20.475C37.5667 20.15 36.792 19.9063 36.0094 19.7438C35.2267 19.5813 34.4042 19.5 33.5417 19.5C32.3278 19.5 31.1618 19.6715 30.0437 20.0146C28.9257 20.3577 27.8556 20.8361 26.8333 21.45ZM26.8333 33.3667V29.6834C27.8875 29.1778 28.9656 28.7986 30.0677 28.5459C31.1698 28.2931 32.3278 28.1667 33.5417 28.1667C34.3722 28.1667 35.1868 28.2389 35.9854 28.3834C36.784 28.5278 37.5667 28.7084 38.3333 28.925V32.3917C37.5667 32.0667 36.792 31.8229 36.0094 31.6604C35.2267 31.4979 34.4042 31.4167 33.5417 31.4167C32.3278 31.4167 31.1618 31.5792 30.0437 31.9042C28.9257 32.2292 27.8556 32.7167 26.8333 33.3667ZM26.8333 27.4084V23.725C27.8875 23.2195 28.9656 22.8403 30.0677 22.5875C31.1698 22.3347 32.3278 22.2084 33.5417 22.2084C34.3722 22.2084 35.1868 22.2806 35.9854 22.425C36.784 22.5695 37.5667 22.75 38.3333 22.9667V26.4334C37.5667 26.1084 36.792 25.8646 36.0094 25.7021C35.2267 25.5396 34.4042 25.4584 33.5417 25.4584C32.3278 25.4584 31.1618 25.6299 30.0437 25.9729C28.9257 26.316 27.8556 26.7945 26.8333 27.4084ZM12.4583 34.6667C13.9597 34.6667 15.4212 34.8563 16.8427 35.2354C18.2642 35.6146 19.6778 36.1834 21.0833 36.9417V15.6C19.7736 14.7334 18.384 14.0834 16.9146 13.65C15.4451 13.2167 13.9597 13 12.4583 13C11.3083 13 10.1663 13.1264 9.03229 13.3792C7.89826 13.632 6.80416 14.0111 5.75 14.5167V35.9667C6.86805 35.5334 7.97812 35.2084 9.08021 34.9917C10.1823 34.775 11.3083 34.6667 12.4583 34.6667ZM24.9167 36.9417C26.3222 36.1834 27.7358 35.6146 29.1573 35.2354C30.5788 34.8563 32.0403 34.6667 33.5417 34.6667C34.6917 34.6667 35.8177 34.775 36.9198 34.9917C38.0219 35.2084 39.1319 35.5334 40.25 35.9667V14.5167C39.1958 14.0111 38.1017 13.632 36.9677 13.3792C35.8337 13.1264 34.6917 13 33.5417 13C32.0403 13 30.5549 13.2167 29.0854 13.65C27.616 14.0834 26.2264 14.7334 24.9167 15.6V36.9417ZM23 43.3334C21.4667 41.9611 19.8056 40.8959 18.0167 40.1375C16.2278 39.3792 14.375 39 12.4583 39C11.1167 39 9.79896 39.1986 8.50521 39.5959C7.21146 39.9931 5.97361 40.5528 4.79166 41.275C4.12083 41.6722 3.47396 41.6542 2.85104 41.2209C2.22812 40.7875 1.91666 40.1556 1.91666 39.325V13.2167C1.91666 12.8195 2.00451 12.4403 2.18021 12.0792C2.3559 11.7181 2.61944 11.4472 2.97083 11.2667C4.44028 10.4 5.97361 9.75002 7.57083 9.31669C9.16805 8.88335 10.7972 8.66669 12.4583 8.66669C14.3111 8.66669 16.124 8.93752 17.8969 9.47919C19.6698 10.0209 21.3708 10.8334 23 11.9167C24.6292 10.8334 26.3302 10.0209 28.1031 9.47919C29.876 8.93752 31.6889 8.66669 33.5417 8.66669C35.2028 8.66669 36.8319 8.88335 38.4292 9.31669C40.0264 9.75002 41.5597 10.4 43.0292 11.2667C43.3806 11.4472 43.6441 11.7181 43.8198 12.0792C43.9955 12.4403 44.0833 12.8195 44.0833 13.2167V39.325C44.0833 40.1556 43.7719 40.7875 43.149 41.2209C42.526 41.6542 41.8792 41.6722 41.2083 41.275C40.0264 40.5528 38.7885 39.9931 37.4948 39.5959C36.201 39.1986 34.8833 39 33.5417 39C31.625 39 29.7722 39.3792 27.9833 40.1375C26.1944 40.8959 24.5333 41.9611 23 43.3334Z" fill="black"/>
</svg>
