<svg width="35" height="27" viewBox="0 0 35 27" fill="none" xmlns="http://www.w3.org/2000/svg">
<g clip-path="url(#clip0_169_856)">
<path d="M26.1625 20.1825C23.6696 21.6484 20.6341 22.4605 17.5 22.5C7.29168 22.5 1.45834 13.5 1.45834 13.5C3.27235 10.8921 5.78833 8.61368 8.83751 6.8175M14.4375 4.77C15.4413 4.58874 16.4691 4.49813 17.5 4.5C27.7083 4.5 33.5417 13.5 33.5417 13.5C32.6564 14.7776 31.6007 15.9803 30.3917 17.0887M20.5917 15.885C20.1911 16.2166 19.7081 16.4825 19.1715 16.667C18.6348 16.8515 18.0555 16.9507 17.4681 16.9587C16.8806 16.9667 16.2971 16.8833 15.7524 16.7136C15.2076 16.5438 14.7127 16.2912 14.2973 15.9707C13.8818 15.6502 13.5543 15.2684 13.3343 14.8482C13.1143 14.4279 13.0062 13.9778 13.0166 13.5246C13.0269 13.0715 13.1555 12.6246 13.3946 12.2106C13.6337 11.7966 13.9785 11.424 14.4083 11.115M1.45834 1.125L33.5417 25.875" stroke="#685C5C" stroke-width="2" stroke-linecap="round" stroke-linejoin="round"/>
</g>
<defs>
<clipPath id="clip0_169_856">
<rect width="35" height="27" fill="white"/>
</clipPath>
</defs>
</svg>
