<svg width="49" height="51" viewBox="0 0 49 51" fill="none" xmlns="http://www.w3.org/2000/svg">
<path d="M24.5 31.875C25.0785 31.875 25.5634 31.6714 25.9547 31.2641C26.346 30.8568 26.5417 30.3521 26.5417 29.75C26.5417 29.1479 26.346 28.6432 25.9547 28.2359C25.5634 27.8286 25.0785 27.625 24.5 27.625C23.9215 27.625 23.4366 27.8286 23.0453 28.2359C22.654 28.6432 22.4583 29.1479 22.4583 29.75C22.4583 30.3521 22.654 30.8568 23.0453 31.2641C23.4366 31.6714 23.9215 31.875 24.5 31.875ZM22.4583 23.375H26.5417V10.625H22.4583V23.375ZM4.08334 46.75V8.5C4.08334 7.33125 4.48316 6.33073 5.28281 5.49844C6.08247 4.66615 7.04375 4.25 8.16667 4.25H40.8333C41.9563 4.25 42.9175 4.66615 43.7172 5.49844C44.5168 6.33073 44.9167 7.33125 44.9167 8.5V34C44.9167 35.1688 44.5168 36.1693 43.7172 37.0016C42.9175 37.8339 41.9563 38.25 40.8333 38.25H12.25L4.08334 46.75ZM10.5146 34H40.8333V8.5H8.16667V36.3906L10.5146 34Z" fill="black"/>
</svg>
