<svg width="46" height="52" viewBox="0 0 46 52" fill="none" xmlns="http://www.w3.org/2000/svg">
<path d="M8.28959 19.5H37.7104L36.0813 13H9.96667L8.28959 19.5ZM32.2 23.8334H13.8479L13.3208 28.1667H32.6792L32.2 23.8334ZM7.66667 43.3334L10.0146 23.8334H5.75C5.11111 23.8334 4.60799 23.5445 4.24063 22.9667C3.87327 22.3889 3.76945 21.757 3.92917 21.0709L6.66042 10.2375C6.7882 9.76808 7.01181 9.38891 7.33125 9.10002C7.6507 8.81113 8.03403 8.66669 8.48125 8.66669H37.5188C37.966 8.66669 38.3493 8.81113 38.6688 9.10002C38.9882 9.38891 39.2118 9.76808 39.3396 10.2375L42.0708 21.0709C42.2306 21.757 42.1267 22.3889 41.7594 22.9667C41.392 23.5445 40.8889 23.8334 40.25 23.8334H36.0333L38.3333 43.3334H34.5L33.2063 32.5H12.7938L11.5 43.3334H7.66667Z" fill="black"/>
</svg>
