<svg width="49" height="41" viewBox="0 0 49 41" fill="none" xmlns="http://www.w3.org/2000/svg">
<path d="M31.6458 34.0385L22.9688 26.7781L25.8271 24.3864L31.6458 29.2552L43.1813 19.6031L46.0396 21.9948L31.6458 34.0385ZM42.875 17.0833H38.7917V8.54165H34.7083V13.6666H14.2917V8.54165H10.2083V32.4583H22.4583V35.875H10.2083C9.08542 35.875 8.12413 35.5404 7.32448 34.8713C6.52483 34.2022 6.125 33.3979 6.125 32.4583V8.54165C6.125 7.60206 6.52483 6.79772 7.32448 6.12863C8.12413 5.45953 9.08542 5.12498 10.2083 5.12498H18.7323C19.1066 4.12845 19.8382 3.30988 20.9271 2.66925C22.016 2.02863 23.2069 1.70831 24.5 1.70831C25.8611 1.70831 27.0776 2.02863 28.1495 2.66925C29.2214 3.30988 29.9444 4.12845 30.3188 5.12498H38.7917C39.9146 5.12498 40.8759 5.45953 41.6755 6.12863C42.4752 6.79772 42.875 7.60206 42.875 8.54165V17.0833ZM24.5 8.54165C25.0785 8.54165 25.5634 8.37793 25.9547 8.0505C26.346 7.72307 26.5417 7.31734 26.5417 6.83331C26.5417 6.34929 26.346 5.94356 25.9547 5.61613C25.5634 5.28869 25.0785 5.12498 24.5 5.12498C23.9215 5.12498 23.4366 5.28869 23.0453 5.61613C22.654 5.94356 22.4583 6.34929 22.4583 6.83331C22.4583 7.31734 22.654 7.72307 23.0453 8.0505C23.4366 8.37793 23.9215 8.54165 24.5 8.54165Z" fill="black"/>
</svg>
