<svg width="49" height="49" viewBox="0 0 49 49" fill="none" xmlns="http://www.w3.org/2000/svg">
<path d="M10.2083 38.7917V10.2083V19.3448V18.375V38.7917ZM14.2917 26.5417H25.5719C25.6399 25.7931 25.8101 25.0785 26.0823 24.3979C26.3545 23.7174 26.6948 23.0708 27.1031 22.4583H14.2917V26.5417ZM14.2917 34.7083H22.3052C22.8837 34.0278 23.5472 33.4748 24.2958 33.0495C25.0444 32.6241 25.8271 32.2753 26.6438 32.0031C26.5076 31.799 26.3885 31.5778 26.2865 31.3396C26.1844 31.1014 26.0993 30.8632 26.0313 30.625H14.2917V34.7083ZM14.2917 18.375H34.7083V14.2917H14.2917V18.375ZM10.2083 42.875C9.08542 42.875 8.12413 42.4752 7.32448 41.6755C6.52483 40.8759 6.125 39.9146 6.125 38.7917V10.2083C6.125 9.08542 6.52483 8.12413 7.32448 7.32448C8.12413 6.52483 9.08542 6.125 10.2083 6.125H38.7917C39.9146 6.125 40.8759 6.52483 41.6755 7.32448C42.4752 8.12413 42.875 9.08542 42.875 10.2083V23.3771C42.3986 22.4924 41.8201 21.7097 41.1396 21.0292C40.459 20.3486 39.6764 19.7872 38.7917 19.3448V10.2083H10.2083V38.7917H20.5188C20.4847 38.9958 20.4592 39.2 20.4422 39.4042C20.4252 39.6083 20.4167 39.8125 20.4167 40.0167V42.875H10.2083ZM34.7083 32.6667C33.2792 32.6667 32.0712 32.1733 31.0844 31.1865C30.0976 30.1997 29.6042 28.9917 29.6042 27.5625C29.6042 26.1333 30.0976 24.9253 31.0844 23.9385C32.0712 22.9517 33.2792 22.4583 34.7083 22.4583C36.1375 22.4583 37.3455 22.9517 38.3323 23.9385C39.3191 24.9253 39.8125 26.1333 39.8125 27.5625C39.8125 28.9917 39.3191 30.1997 38.3323 31.1865C37.3455 32.1733 36.1375 32.6667 34.7083 32.6667ZM24.5 42.875V40.0167C24.5 39.2 24.7127 38.4429 25.138 37.7453C25.5634 37.0477 26.1674 36.5458 26.95 36.2396C28.175 35.7292 29.4425 35.3464 30.7526 35.0911C32.0627 34.8359 33.3813 34.7083 34.7083 34.7083C36.0354 34.7083 37.354 34.8359 38.6641 35.0911C39.9741 35.3464 41.2417 35.7292 42.4667 36.2396C43.2493 36.5458 43.8533 37.0477 44.2786 37.7453C44.704 38.4429 44.9167 39.2 44.9167 40.0167V42.875H24.5Z" fill="black"/>
</svg>
