<svg width="201" height="203" viewBox="0 0 201 203" fill="none" xmlns="http://www.w3.org/2000/svg">
<path d="M100.5 101.5C91.2875 101.5 83.401 98.1871 76.8406 91.5614C70.2802 84.9357 67 76.9707 67 67.6666C67 58.3624 70.2802 50.3975 76.8406 43.7718C83.401 37.1461 91.2875 33.8333 100.5 33.8333C109.713 33.8333 117.599 37.1461 124.159 43.7718C130.72 50.3975 134 58.3624 134 67.6666C134 76.9707 130.72 84.9357 124.159 91.5614C117.599 98.1871 109.713 101.5 100.5 101.5ZM33.5 169.167V145.483C33.5 140.69 34.7214 136.285 37.1641 132.267C39.6068 128.249 42.8521 125.183 46.9 123.069C55.5542 118.699 64.3479 115.421 73.2812 113.236C82.2146 111.051 91.2875 109.958 100.5 109.958C109.713 109.958 118.785 111.051 127.719 113.236C136.652 115.421 145.446 118.699 154.1 123.069C158.148 125.183 161.393 128.249 163.836 132.267C166.279 136.285 167.5 140.69 167.5 145.483V169.167H33.5ZM50.25 152.25H150.75V145.483C150.75 143.933 150.366 142.523 149.598 141.254C148.831 139.985 147.819 138.999 146.562 138.294C139.025 134.487 131.418 131.633 123.741 129.73C116.064 127.826 108.317 126.875 100.5 126.875C92.6833 126.875 84.9365 127.826 77.2594 129.73C69.5823 131.633 61.975 134.487 54.4375 138.294C53.1812 138.999 52.1693 139.985 51.4016 141.254C50.6339 142.523 50.25 143.933 50.25 145.483V152.25ZM100.5 84.5833C105.106 84.5833 109.049 82.9268 112.33 79.614C115.61 76.3011 117.25 72.3187 117.25 67.6666C117.25 63.0145 115.61 59.032 112.33 55.7192C109.049 52.4063 105.106 50.7499 100.5 50.7499C95.8937 50.7499 91.9505 52.4063 88.6703 55.7192C85.3901 59.032 83.75 63.0145 83.75 67.6666C83.75 72.3187 85.3901 76.3011 88.6703 79.614C91.9505 82.9268 95.8937 84.5833 100.5 84.5833Z" fill="white"/>
</svg>
