<svg width="104" height="95" viewBox="0 0 104 95" fill="none" xmlns="http://www.w3.org/2000/svg">
<path d="M26 87.0833C23.6166 87.0833 21.5764 86.3081 19.8791 84.7577C18.1819 83.2074 17.3333 81.3437 17.3333 79.1666V39.5833C17.3333 37.4062 18.1819 35.5425 19.8791 33.9921C21.5764 32.4418 23.6166 31.6666 26 31.6666H30.3333V23.7499C30.3333 18.2742 32.4458 13.6067 36.6708 9.74731C40.8958 5.88794 46.0055 3.95825 52 3.95825C57.9944 3.95825 63.1041 5.88794 67.3291 9.74731C71.5541 13.6067 73.6666 18.2742 73.6666 23.7499V31.6666H78C80.3833 31.6666 82.4236 32.4418 84.1208 33.9921C85.818 35.5425 86.6666 37.4062 86.6666 39.5833V79.1666C86.6666 81.3437 85.818 83.2074 84.1208 84.7577C82.4236 86.3081 80.3833 87.0833 78 87.0833H26ZM26 79.1666H78V39.5833H26V79.1666ZM52 67.2916C54.3833 67.2916 56.4236 66.5164 58.1208 64.9661C59.818 63.4157 60.6666 61.552 60.6666 59.3749C60.6666 57.1978 59.818 55.3341 58.1208 53.7838C56.4236 52.2334 54.3833 51.4583 52 51.4583C49.6166 51.4583 47.5764 52.2334 45.8791 53.7838C44.1819 55.3341 43.3333 57.1978 43.3333 59.3749C43.3333 61.552 44.1819 63.4157 45.8791 64.9661C47.5764 66.5164 49.6166 67.2916 52 67.2916ZM39 31.6666H65V23.7499C65 20.4513 63.7361 17.6475 61.2083 15.3385C58.6805 13.0294 55.6111 11.8749 52 11.8749C48.3889 11.8749 45.3194 13.0294 42.7916 15.3385C40.2639 17.6475 39 20.4513 39 23.7499V31.6666Z" fill="#E3E3E3"/>
</svg>
