<svg width="22" height="26" viewBox="0 0 22 26" fill="none" xmlns="http://www.w3.org/2000/svg">
<path d="M2.99992 25.5835C2.26659 25.5835 1.63881 25.3469 1.11659 24.8736C0.594363 24.4003 0.333252 23.8314 0.333252 23.1668V11.0835C0.333252 10.4189 0.594363 9.84999 1.11659 9.37673C1.63881 8.90346 2.26659 8.66683 2.99992 8.66683H4.33325V6.25016C4.33325 4.57863 4.98325 3.15381 6.28325 1.97568C7.58325 0.797559 9.15547 0.208496 10.9999 0.208496C12.8444 0.208496 14.4166 0.797559 15.7166 1.97568C17.0166 3.15381 17.6666 4.57863 17.6666 6.25016V8.66683H18.9999C19.7333 8.66683 20.361 8.90346 20.8833 9.37673C21.4055 9.84999 21.6666 10.4189 21.6666 11.0835V23.1668C21.6666 23.8314 21.4055 24.4003 20.8833 24.8736C20.361 25.3469 19.7333 25.5835 18.9999 25.5835H2.99992ZM2.99992 23.1668H18.9999V11.0835H2.99992V23.1668ZM10.9999 19.5418C11.7333 19.5418 12.361 19.3052 12.8833 18.8319C13.4055 18.3587 13.6666 17.7897 13.6666 17.1252C13.6666 16.4606 13.4055 15.8917 12.8833 15.4184C12.361 14.9451 11.7333 14.7085 10.9999 14.7085C10.2666 14.7085 9.63881 14.9451 9.11659 15.4184C8.59436 15.8917 8.33325 16.4606 8.33325 17.1252C8.33325 17.7897 8.59436 18.3587 9.11659 18.8319C9.63881 19.3052 10.2666 19.5418 10.9999 19.5418ZM6.99992 8.66683H14.9999V6.25016C14.9999 5.24322 14.611 4.38732 13.8333 3.68245C13.0555 2.97759 12.111 2.62516 10.9999 2.62516C9.88881 2.62516 8.94436 2.97759 8.16659 3.68245C7.38881 4.38732 6.99992 5.24322 6.99992 6.25016V8.66683Z" fill="#E3E3E3"/>
</svg>
