<svg width="58" height="45" viewBox="0 0 58 45" fill="none" xmlns="http://www.w3.org/2000/svg">
<path d="M29.0002 40.5154C28.4363 40.5154 27.9529 40.3927 27.5502 40.1471C27.1474 39.9016 26.8453 39.5793 26.6439 39.1803C25.8786 37.4615 24.912 35.8501 23.7439 34.3461C22.6161 32.8421 21.0252 31.0773 18.971 29.0515C16.9168 27.0258 15.2453 25.0921 13.9564 23.2505C12.7078 21.4089 12.0835 19.1837 12.0835 16.5747C12.0835 12.9836 13.7147 9.94501 16.9772 7.45886C20.28 4.94201 24.2877 3.68359 29.0002 3.68359C33.7127 3.68359 37.7002 4.94201 40.9627 7.45886C44.2654 9.94501 45.9168 12.9836 45.9168 16.5747C45.9168 19.3678 45.212 21.7005 43.8022 23.5728C42.4328 25.4144 40.8418 27.2406 39.0293 29.0515C36.8543 31.2614 35.2029 33.103 34.0752 34.5763C32.9877 36.0189 32.0814 37.5535 31.3564 39.1803C31.155 39.61 30.8328 39.9476 30.3897 40.1932C29.987 40.408 29.5238 40.5154 29.0002 40.5154ZM29.0002 33.9317C29.6849 32.8882 30.4502 31.86 31.296 30.8471C32.1821 29.8342 33.471 28.4837 35.1627 26.7956C36.8946 25.0768 38.3043 23.4961 39.3918 22.0535C40.5196 20.5802 41.0835 18.754 41.0835 16.5747C41.0835 14.0272 39.8953 11.8633 37.5189 10.0831C35.1828 8.27223 32.3432 7.36678 29.0002 7.36678C25.6571 7.36678 22.7974 8.27223 20.421 10.0831C18.0849 11.8633 16.9168 14.0272 16.9168 16.5747C16.9168 18.754 17.4606 20.5802 18.5481 22.0535C19.6759 23.4961 21.1057 25.0768 22.8377 26.7956C24.5293 28.4837 25.7981 29.8342 26.6439 30.8471C27.53 31.86 28.3154 32.8882 29.0002 33.9317ZM29.0002 21.1787C30.6918 21.1787 32.1217 20.7337 33.2897 19.8436C34.4578 18.9535 35.0418 17.8639 35.0418 16.5747C35.0418 15.2856 34.4578 14.196 33.2897 13.3059C32.1217 12.4158 30.6918 11.9708 29.0002 11.9708C27.3085 11.9708 25.8786 12.4158 24.7106 13.3059C23.5425 14.196 22.9585 15.2856 22.9585 16.5747C22.9585 17.8639 23.5425 18.9535 24.7106 19.8436C25.8786 20.7337 27.3085 21.1787 29.0002 21.1787Z" fill="#7F7D7D"/>
</svg>
