<svg width="30" height="29" viewBox="0 0 30 29" fill="none" xmlns="http://www.w3.org/2000/svg">
<path d="M8.75 13.2917V8.45841C8.75 6.85607 9.40848 5.31934 10.5806 4.18631C11.7527 3.05328 13.3424 2.41675 15 2.41675C16.6576 2.41675 18.2473 3.05328 19.4194 4.18631C20.5915 5.31934 21.25 6.85607 21.25 8.45841V13.2917M6.25 13.2917H23.75C25.1307 13.2917 26.25 14.3737 26.25 15.7084V24.1667C26.25 25.5014 25.1307 26.5834 23.75 26.5834H6.25C4.86929 26.5834 3.75 25.5014 3.75 24.1667V15.7084C3.75 14.3737 4.86929 13.2917 6.25 13.2917Z" stroke="black" stroke-opacity="0.68" stroke-width="3" stroke-linecap="round" stroke-linejoin="round"/>
</svg>
