<svg width="46" height="49" viewBox="0 0 46 49" fill="none" xmlns="http://www.w3.org/2000/svg">
<path d="M7.66665 40.8334C6.61248 40.8334 5.71005 40.4336 4.95935 39.6339C4.20866 38.8343 3.83331 37.873 3.83331 36.7501V12.2501C3.83331 11.1272 4.20866 10.1659 4.95935 9.36623C5.71005 8.56657 6.61248 8.16675 7.66665 8.16675H38.3333C39.3875 8.16675 40.2899 8.56657 41.0406 9.36623C41.7913 10.1659 42.1666 11.1272 42.1666 12.2501V36.7501C42.1666 37.873 41.7913 38.8343 41.0406 39.6339C40.2899 40.4336 39.3875 40.8334 38.3333 40.8334H7.66665ZM23 26.5417L7.66665 16.3334V36.7501H38.3333V16.3334L23 26.5417ZM23 22.4584L38.3333 12.2501H7.66665L23 22.4584ZM7.66665 16.3334V12.2501V36.7501V16.3334Z" fill="white"/>
</svg>
