<svg width="84" height="93" viewBox="0 0 84 93" fill="none" xmlns="http://www.w3.org/2000/svg">
<path d="M42 46.5001C36.225 46.5001 31.2813 44.2317 27.1688 39.6949C23.0563 35.1581 21 29.7042 21 23.3334C21 16.9626 23.0563 11.5088 27.1688 6.97196C31.2813 2.43515 36.225 0.166748 42 0.166748C47.775 0.166748 52.7187 2.43515 56.8312 6.97196C60.9437 11.5088 63 16.9626 63 23.3334C63 29.7042 60.9437 35.1581 56.8312 39.6949C52.7187 44.2317 47.775 46.5001 42 46.5001ZM0 92.8334V76.6168C0 73.3348 0.765625 70.3183 2.29688 67.5673C3.82813 64.8162 5.8625 62.7168 8.4 61.2688C13.825 58.2765 19.3375 56.0322 24.9375 54.536C30.5375 53.0398 36.225 52.2918 42 52.2918C47.775 52.2918 53.4625 53.0398 59.0625 54.536C64.6625 56.0322 70.175 58.2765 75.6 61.2688C78.1375 62.7168 80.1719 64.8162 81.7031 67.5673C83.2344 70.3183 84 73.3348 84 76.6168V92.8334H0ZM10.5 81.2501H73.5V76.6168C73.5 75.5549 73.2594 74.5897 72.7781 73.7209C72.2969 72.8522 71.6625 72.1765 70.875 71.6938C66.15 69.0876 61.3813 67.1329 56.5688 65.8298C51.7563 64.5267 46.9 63.8751 42 63.8751C37.1 63.8751 32.2437 64.5267 27.4312 65.8298C22.6187 67.1329 17.85 69.0876 13.125 71.6938C12.3375 72.1765 11.7031 72.8522 11.2219 73.7209C10.7406 74.5897 10.5 75.5549 10.5 76.6168V81.2501ZM42 34.9167C44.8875 34.9167 47.3594 33.7825 49.4156 31.5141C51.4719 29.2457 52.5 26.5188 52.5 23.3334C52.5 20.148 51.4719 17.4211 49.4156 15.1527C47.3594 12.8843 44.8875 11.7501 42 11.7501C39.1125 11.7501 36.6406 12.8843 34.5844 15.1527C32.5281 17.4211 31.5 20.148 31.5 23.3334C31.5 26.5188 32.5281 29.2457 34.5844 31.5141C36.6406 33.7825 39.1125 34.9167 42 34.9167Z" fill="#F9DEDC"/>
</svg>
