<svg width="46" height="47" viewBox="0 0 46 47" fill="none" xmlns="http://www.w3.org/2000/svg">
<path d="M9.58333 41.125C8.52917 41.125 7.62674 40.7415 6.87604 39.9745C6.12535 39.2075 5.75 38.2854 5.75 37.2083V9.79167C5.75 8.71458 6.12535 7.79253 6.87604 7.02552C7.62674 6.25851 8.52917 5.875 9.58333 5.875H36.4167C37.4708 5.875 38.3733 6.25851 39.124 7.02552C39.8747 7.79253 40.25 8.71458 40.25 9.79167V14.6875H36.4167V9.79167H9.58333V37.2083H36.4167V32.3125H40.25V37.2083C40.25 38.2854 39.8747 39.2075 39.124 39.9745C38.3733 40.7415 37.4708 41.125 36.4167 41.125H9.58333ZM24.9167 33.2917C23.8625 33.2917 22.9601 32.9082 22.2094 32.1411C21.4587 31.3741 21.0833 30.4521 21.0833 29.375V17.625C21.0833 16.5479 21.4587 15.6259 22.2094 14.8589C22.9601 14.0918 23.8625 13.7083 24.9167 13.7083H38.3333C39.3875 13.7083 40.2899 14.0918 41.0406 14.8589C41.7913 15.6259 42.1667 16.5479 42.1667 17.625V29.375C42.1667 30.4521 41.7913 31.3741 41.0406 32.1411C40.2899 32.9082 39.3875 33.2917 38.3333 33.2917H24.9167ZM38.3333 29.375V17.625H24.9167V29.375H38.3333ZM30.6667 26.4375C31.4653 26.4375 32.1441 26.1519 32.7031 25.5807C33.2622 25.0096 33.5417 24.316 33.5417 23.5C33.5417 22.684 33.2622 21.9905 32.7031 21.4193C32.1441 20.8481 31.4653 20.5625 30.6667 20.5625C29.8681 20.5625 29.1892 20.8481 28.6302 21.4193C28.0712 21.9905 27.7917 22.684 27.7917 23.5C27.7917 24.316 28.0712 25.0096 28.6302 25.5807C29.1892 26.1519 29.8681 26.4375 30.6667 26.4375Z" fill="black"/>
</svg>
