<svg width="105" height="107" viewBox="0 0 105 107" fill="none" xmlns="http://www.w3.org/2000/svg">
<path d="M52.5 53.5C47.6875 53.5 43.5677 51.7538 40.1406 48.2614C36.7135 44.7691 35 40.5708 35 35.6666C35 30.7625 36.7135 26.5642 40.1406 23.0719C43.5677 19.5795 47.6875 17.8333 52.5 17.8333C57.3125 17.8333 61.4323 19.5795 64.8594 23.0719C68.2865 26.5642 70 30.7625 70 35.6666C70 40.5708 68.2865 44.7691 64.8594 48.2614C61.4323 51.7538 57.3125 53.5 52.5 53.5ZM17.5 89.1666V76.6833C17.5 74.1569 18.138 71.8349 19.4141 69.7172C20.6901 67.5995 22.3854 65.9833 24.5 64.8687C29.0208 62.5653 33.6146 60.8377 38.2812 59.6859C42.9479 58.5342 47.6875 57.9583 52.5 57.9583C57.3125 57.9583 62.0521 58.5342 66.7188 59.6859C71.3854 60.8377 75.9792 62.5653 80.5 64.8687C82.6146 65.9833 84.3099 67.5995 85.5859 69.7172C86.862 71.8349 87.5 74.1569 87.5 76.6833V89.1666H17.5ZM26.25 80.25H78.75V76.6833C78.75 75.8659 78.5495 75.1229 78.1484 74.4541C77.7474 73.7854 77.2188 73.2653 76.5625 72.8937C72.625 70.8875 68.651 69.3828 64.6406 68.3797C60.6302 67.3765 56.5833 66.875 52.5 66.875C48.4167 66.875 44.3698 67.3765 40.3594 68.3797C36.349 69.3828 32.375 70.8875 28.4375 72.8937C27.7812 73.2653 27.2526 73.7854 26.8516 74.4541C26.4505 75.1229 26.25 75.8659 26.25 76.6833V80.25ZM52.5 44.5833C54.9062 44.5833 56.9661 43.7102 58.6797 41.964C60.3932 40.2179 61.25 38.1187 61.25 35.6666C61.25 33.2146 60.3932 31.1154 58.6797 29.3693C56.9661 27.6231 54.9062 26.75 52.5 26.75C50.0938 26.75 48.0339 27.6231 46.3203 29.3693C44.6068 31.1154 43.75 33.2146 43.75 35.6666C43.75 38.1187 44.6068 40.2179 46.3203 41.964C48.0339 43.7102 50.0938 44.5833 52.5 44.5833Z" fill="#B3261E"/>
</svg>
