<svg width="73" height="65" viewBox="0 0 73 65" fill="none" xmlns="http://www.w3.org/2000/svg">
<path d="M59.6167 56.875L40.4542 39.8125C38.9333 40.8958 37.1844 41.7535 35.2073 42.3854C33.2302 43.0174 31.1264 43.3333 28.8958 43.3333C23.3701 43.3333 18.6936 41.6293 14.8661 38.2214C11.0387 34.8134 9.125 30.6493 9.125 25.7292C9.125 20.809 11.0387 16.645 14.8661 13.237C18.6936 9.82899 23.3701 8.125 28.8958 8.125C34.4215 8.125 39.0981 9.82899 42.9255 13.237C46.753 16.645 48.6667 20.809 48.6667 25.7292C48.6667 27.7153 48.3118 29.5885 47.6021 31.349C46.8924 33.1094 45.9292 34.6667 44.7125 36.0208L63.875 53.0833L59.6167 56.875ZM28.8958 37.9167C32.6979 37.9167 35.9297 36.7318 38.5911 34.362C41.2526 31.9922 42.5833 29.1146 42.5833 25.7292C42.5833 22.3438 41.2526 19.4661 38.5911 17.0964C35.9297 14.7266 32.6979 13.5417 28.8958 13.5417C25.0938 13.5417 21.862 14.7266 19.2005 17.0964C16.5391 19.4661 15.2083 22.3438 15.2083 25.7292C15.2083 29.1146 16.5391 31.9922 19.2005 34.362C21.862 36.7318 25.0938 37.9167 28.8958 37.9167Z" fill="black"/>
</svg>
