<svg width="497" height="1193" viewBox="0 0 497 1193" fill="none" xmlns="http://www.w3.org/2000/svg">
<path d="M489.028 4.89163C484.848 6.46308 482.068 10.4462 482.035 14.9111L481.059 144.701C480.529 215.266 423.396 272.309 352.83 272.729L103.974 274.21C74.4915 274.385 50.778 298.429 51.0086 327.911C51.2393 357.394 75.3266 381.151 104.809 380.976L348.553 379.526C420.476 379.098 478.858 437.571 478.317 509.493L473.184 1192.5C473.184 1188.91 470.274 1186 466.684 1186H250L-8.50021 1188L-34.0778 1187.66C-104.468 1186.74 -161.121 1129.55 -161.384 1059.16L-164.999 93.5608C-165.225 33.1185 -116.291 -16 -55.8479 -16H485.23C497.238 -16 500.268 0.665392 489.028 4.89163Z" fill="#FFEAD2"/>
</svg>
