<svg width="178" height="170" viewBox="0 0 178 170" fill="none" xmlns="http://www.w3.org/2000/svg">
<path d="M140.955 107.5V83.9772H118.727V68.2954H140.955V44.7726H155.773V68.2954H178V83.9772H155.773V107.5H140.955ZM74.2727 91.8181C66.1227 91.8181 59.1458 88.7471 53.342 82.605C47.5383 76.463 44.6364 69.0795 44.6364 60.4545C44.6364 51.8295 47.5383 44.4459 53.342 38.3039C59.1458 32.1618 66.1227 29.0908 74.2727 29.0908C82.4227 29.0908 89.3996 32.1618 95.2034 38.3039C101.007 44.4459 103.909 51.8295 103.909 60.4545C103.909 69.0795 101.007 76.463 95.2034 82.605C89.3996 88.7471 82.4227 91.8181 74.2727 91.8181ZM15 154.545V132.591C15 128.148 16.0805 124.064 18.2415 120.339C20.4025 116.615 23.2735 113.773 26.8545 111.812C34.5106 107.761 42.2902 104.723 50.1932 102.697C58.0962 100.672 66.1227 99.659 74.2727 99.659C82.4227 99.659 90.4492 100.672 98.3523 102.697C106.255 104.723 114.035 107.761 121.691 111.812C125.272 113.773 128.143 116.615 130.304 120.339C132.465 124.064 133.545 128.148 133.545 132.591V154.545H15ZM29.8182 138.864H118.727V132.591C118.727 131.153 118.388 129.846 117.709 128.67C117.029 127.494 116.134 126.579 115.023 125.926C108.355 122.398 101.625 119.751 94.833 117.987C88.0413 116.223 81.1879 115.341 74.2727 115.341C67.3576 115.341 60.5042 116.223 53.7125 117.987C46.9208 119.751 40.1909 122.398 33.5227 125.926C32.4114 126.579 31.5161 127.494 30.8369 128.67C30.1578 129.846 29.8182 131.153 29.8182 132.591V138.864ZM74.2727 76.1363C78.3477 76.1363 81.8362 74.6008 84.7381 71.5297C87.64 68.4587 89.0909 64.767 89.0909 60.4545C89.0909 56.142 87.64 52.4502 84.7381 49.3792C81.8362 46.3081 78.3477 44.7726 74.2727 44.7726C70.1977 44.7726 66.7093 46.3081 63.8074 49.3792C60.9055 52.4502 59.4545 56.142 59.4545 60.4545C59.4545 64.767 60.9055 68.4587 63.8074 71.5297C66.7093 74.6008 70.1977 76.1363 74.2727 76.1363Z" fill="white"/>
</svg>
