<svg width="41" height="37" viewBox="0 0 41 37" fill="none" xmlns="http://www.w3.org/2000/svg">
<path d="M20.4999 18.5001C18.6208 18.5001 17.0121 17.8963 15.6739 16.6886C14.3357 15.481 13.6666 14.0292 13.6666 12.3334C13.6666 10.6376 14.3357 9.18585 15.6739 7.97821C17.0121 6.77057 18.6208 6.16675 20.4999 6.16675C22.3791 6.16675 23.9878 6.77057 25.326 7.97821C26.6642 9.18585 27.3333 10.6376 27.3333 12.3334C27.3333 14.0292 26.6642 15.481 25.326 16.6886C23.9878 17.8963 22.3791 18.5001 20.4999 18.5001ZM6.83325 30.8334V26.5167C6.83325 25.6431 7.08238 24.8402 7.58065 24.1079C8.07891 23.3756 8.74089 22.8167 9.56659 22.4313C11.3319 21.6348 13.1256 21.0374 14.9478 20.6391C16.7701 20.2409 18.6208 20.0417 20.4999 20.0417C22.3791 20.0417 24.2298 20.2409 26.052 20.6391C27.8742 21.0374 29.668 21.6348 31.4333 22.4313C32.2589 22.8167 32.9209 23.3756 33.4192 24.1079C33.9175 24.8402 34.1666 25.6431 34.1666 26.5167V30.8334H6.83325ZM10.2499 27.7501H30.7499V26.5167C30.7499 26.2341 30.6716 25.9772 30.515 25.7459C30.3584 25.5147 30.152 25.3348 29.8958 25.2063C28.3583 24.5126 26.8065 23.9923 25.2405 23.6454C23.6746 23.2985 22.0944 23.1251 20.4999 23.1251C18.9055 23.1251 17.3253 23.2985 15.7593 23.6454C14.1933 23.9923 12.6416 24.5126 11.1041 25.2063C10.8478 25.3348 10.6414 25.5147 10.4848 25.7459C10.3282 25.9772 10.2499 26.2341 10.2499 26.5167V27.7501ZM20.4999 15.4167C21.4395 15.4167 22.2438 15.1148 22.9129 14.511C23.582 13.9072 23.9166 13.1813 23.9166 12.3334C23.9166 11.4855 23.582 10.7596 22.9129 10.1558C22.2438 9.55199 21.4395 9.25008 20.4999 9.25008C19.5603 9.25008 18.756 9.55199 18.0869 10.1558C17.4178 10.7596 17.0833 11.4855 17.0833 12.3334C17.0833 13.1813 17.4178 13.9072 18.0869 14.511C18.756 15.1148 19.5603 15.4167 20.4999 15.4167Z" fill="black" fill-opacity="0.68"/>
</svg>
