<svg width="42" height="39" viewBox="0 0 42 39" fill="none" xmlns="http://www.w3.org/2000/svg">
<path d="M15.2708 38.25L14.4375 32.25C13.9861 32.0938 13.5608 31.9062 13.1615 31.6875C12.7622 31.4688 12.3715 31.2344 11.9896 30.9844L5.79167 33.3281L0.0625 24.4219L5.42708 20.7656C5.39236 20.5469 5.375 20.3359 5.375 20.1328V18.8672C5.375 18.6641 5.39236 18.4531 5.42708 18.2344L0.0625 14.5781L5.79167 5.67188L11.9896 8.01562C12.3715 7.76562 12.7708 7.53125 13.1875 7.3125C13.6042 7.09375 14.0208 6.90625 14.4375 6.75L15.2708 0.75H26.7292L27.5625 6.75C28.0139 6.90625 28.4392 7.09375 28.8385 7.3125C29.2378 7.53125 29.6285 7.76562 30.0104 8.01562L36.2083 5.67188L41.9375 14.5781L38.0833 17.2031C37.3194 16.8594 36.5382 16.5703 35.7396 16.3359C34.941 16.1016 34.0903 15.9375 33.1875 15.8438L36.4688 13.5938L34.4375 10.4062L29.2812 12.375C28.5174 11.6562 27.6753 11.0547 26.7552 10.5703C25.8351 10.0859 24.8368 9.71875 23.7604 9.46875L23.0833 4.5H18.9688L18.2396 9.46875C17.1632 9.71875 16.1649 10.0859 15.2448 10.5703C14.3247 11.0547 13.4826 11.6406 12.7188 12.3281L7.5625 10.4062L5.53125 13.5938L10.0104 16.5938C9.83681 17.0625 9.71528 17.5312 9.64583 18C9.57639 18.4688 9.54167 18.9688 9.54167 19.5C9.54167 20 9.57639 20.4844 9.64583 20.9531C9.71528 21.4219 9.83681 21.8906 10.0104 22.3594L5.53125 25.4062L7.5625 28.5938L12.7188 26.625C13.309 27.1562 13.9427 27.6328 14.6198 28.0547C15.2969 28.4766 16.0347 28.8281 16.8333 29.1094C16.8681 30.8906 17.276 32.5625 18.0573 34.125C18.8385 35.6875 19.8889 37.0625 21.2083 38.25H15.2708ZM17.4062 25.1719C17.6146 24.5469 17.8663 23.9453 18.1615 23.3672C18.4566 22.7891 18.7951 22.2344 19.1771 21.7031C18.7951 21.4531 18.5 21.1328 18.2917 20.7422C18.0833 20.3516 17.9792 19.9375 17.9792 19.5C17.9792 18.7188 18.283 18.0547 18.8906 17.5078C19.4983 16.9609 20.2361 16.6875 21.1042 16.6875C21.5903 16.6875 22.059 16.7891 22.5104 16.9922C22.9618 17.1953 23.3264 17.4688 23.6042 17.8125C24.1944 17.4688 24.8021 17.1641 25.4271 16.8984C26.0521 16.6328 26.7118 16.4219 27.4062 16.2656C26.7812 15.2656 25.9132 14.4609 24.8021 13.8516C23.691 13.2422 22.4583 12.9375 21.1042 12.9375C19.0556 12.9375 17.3281 13.5781 15.9219 14.8594C14.5156 16.1406 13.8125 17.6875 13.8125 19.5C13.8125 20.6875 14.1337 21.7891 14.776 22.8047C15.4184 23.8203 16.2951 24.6094 17.4062 25.1719ZM31.4167 34.5L37.6667 28.875L31.4167 23.25L29.9583 24.5625L33.7083 27.9375H25.1667V29.8125H33.6562L29.9583 33.1875L31.4167 34.5ZM31.4167 38.25C28.5347 38.25 26.0781 37.3359 24.0469 35.5078C22.0156 33.6797 21 31.4688 21 28.875C21 26.2812 22.0156 24.0703 24.0469 22.2422C26.0781 20.4141 28.5347 19.5 31.4167 19.5C34.2986 19.5 36.7552 20.4141 38.7865 22.2422C40.8177 24.0703 41.8333 26.2812 41.8333 28.875C41.8333 31.4688 40.8177 33.6797 38.7865 35.5078C36.7552 37.3359 34.2986 38.25 31.4167 38.25Z" fill="black"/>
</svg>
