<svg width="134" height="136" viewBox="0 0 134 136" fill="none" xmlns="http://www.w3.org/2000/svg">
<path d="M67 67.6667C57.7875 67.6667 49.901 64.3538 43.3406 57.7281C36.7802 51.1024 33.5 43.1375 33.5 33.8333C33.5 24.5292 36.7802 16.5642 43.3406 9.93854C49.901 3.31285 57.7875 0 67 0C76.2125 0 84.099 3.31285 90.6594 9.93854C97.2198 16.5642 100.5 24.5292 100.5 33.8333C100.5 43.1375 97.2198 51.1024 90.6594 57.7281C84.099 64.3538 76.2125 67.6667 67 67.6667ZM0 135.333V111.65C0 106.857 1.22135 102.452 3.66406 98.4339C6.10677 94.4161 9.35208 91.35 13.4 89.2354C22.0542 84.8653 30.8479 81.5877 39.7812 79.4026C48.7146 77.2175 57.7875 76.125 67 76.125C76.2125 76.125 85.2854 77.2175 94.2187 79.4026C103.152 81.5877 111.946 84.8653 120.6 89.2354C124.648 91.35 127.893 94.4161 130.336 98.4339C132.779 102.452 134 106.857 134 111.65V135.333H0ZM16.75 118.417H117.25V111.65C117.25 110.099 116.866 108.69 116.098 107.421C115.331 106.152 114.319 105.165 113.062 104.46C105.525 100.654 97.9177 97.7995 90.2406 95.8964C82.5635 93.9932 74.8167 93.0417 67 93.0417C59.1833 93.0417 51.4365 93.9932 43.7594 95.8964C36.0823 97.7995 28.475 100.654 20.9375 104.46C19.6812 105.165 18.6693 106.152 17.9016 107.421C17.1339 108.69 16.75 110.099 16.75 111.65V118.417ZM67 50.75C71.6062 50.75 75.5495 49.0936 78.8297 45.7807C82.1099 42.4679 83.75 38.4854 83.75 33.8333C83.75 29.1812 82.1099 25.1988 78.8297 21.8859C75.5495 18.5731 71.6062 16.9167 67 16.9167C62.3937 16.9167 58.4505 18.5731 55.1703 21.8859C51.8901 25.1988 50.25 29.1812 50.25 33.8333C50.25 38.4854 51.8901 42.4679 55.1703 45.7807C58.4505 49.0936 62.3937 50.75 67 50.75Z" fill="white"/>
</svg>
