<svg width="93" height="85" viewBox="0 0 93 85" fill="none" xmlns="http://www.w3.org/2000/svg">
<path d="M27.125 81.4583L37.975 31.5208L31 34V46.0417H23.25V29.3958L42.8188 21.7812C43.7229 21.4271 44.6755 21.2205 45.6766 21.1615C46.6776 21.1024 47.6302 21.2205 48.5344 21.5156C49.4385 21.8108 50.2943 22.224 51.1016 22.7552C51.9089 23.2865 52.5708 23.9653 53.0875 24.7917L56.9625 30.4583C58.6417 32.9375 60.9182 34.974 63.7922 36.5677C66.6661 38.1615 69.9437 38.9583 73.625 38.9583V46.0417C69.1042 46.0417 65.0677 45.1858 61.5156 43.474C57.9635 41.7622 54.9281 39.5781 52.4094 36.9219L49.9875 47.8125L58.125 54.8958V81.4583H50.375V58.4375L42.2375 52.7708L35.2625 81.4583H27.125ZM52.3125 19.4792C50.1812 19.4792 48.3568 18.7856 46.8391 17.3984C45.3214 16.0113 44.5625 14.3438 44.5625 12.3958C44.5625 10.4479 45.3214 8.78038 46.8391 7.39323C48.3568 6.00608 50.1812 5.3125 52.3125 5.3125C54.4438 5.3125 56.2682 6.00608 57.7859 7.39323C59.3036 8.78038 60.0625 10.4479 60.0625 12.3958C60.0625 14.3438 59.3036 16.0113 57.7859 17.3984C56.2682 18.7856 54.4438 19.4792 52.3125 19.4792Z" fill="#B3261E"/>
</svg>
